<svg width="24" height="24" viewBox="0 0 24 24" fill="none" xmlns="http://www.w3.org/2000/svg">
<path fill-rule="evenodd" clip-rule="evenodd" d="M12 0C18.6274 0 24 5.37258 24 12C24 18.6274 18.6274 24 12 24C5.37258 24 0 18.6274 0 12C0 5.37258 5.37258 0 12 0Z" fill="white"/>
<path d="M13.3919 10.6601C13.3226 10.0632 12.8154 9.6 12.2 9.6C11.5373 9.6 11 10.1373 11 10.8V16.8L11.0081 16.9399C11.0774 17.5368 11.5846 18 12.2 18C12.8627 18 13.4 17.4627 13.4 16.8V10.8L13.3919 10.6601Z" fill="#5F4507"/>
<path d="M13.4 7.2C13.4 6.53726 12.8627 6 12.2 6C11.5373 6 11 6.53726 11 7.2C11 7.86274 11.5373 8.4 12.2 8.4C12.8627 8.4 13.4 7.86274 13.4 7.2Z" fill="#5F4507"/>
</svg>
